# Blender 4.3.2
# www.blender.org
mtllib stable.mtl
o door_L_geo
v -2.200328 5.790417 -4.969239
v -2.200327 5.790417 0.000000
v -0.001809 5.790417 0.000000
v -0.000067 5.790417 -4.969239
vn -0.0000 1.0000 -0.0000
vt 0.931641 0.976562
vt 0.931641 0.542969
vt 0.734375 0.542969
vt 0.734375 0.976562
s 1
usemtl barn_mat
f 1/1/1 2/2/1 3/3/1 4/4/1
o door_R_geo
v 2.196709 5.790417 -0.000000
v 2.200193 5.790417 -4.969239
v -0.001809 5.790417 0.000000
v -0.000067 5.790417 -4.969239
vn -0.0000 1.0000 -0.0000
vt 0.734375 0.976562
vt 0.734375 0.542969
vt 0.931641 0.542969
vt 0.931641 0.976562
s 1
usemtl barn_mat
f 8/5/2 7/6/2 5/7/2 6/8/2
o door_geo
v 0.672167 3.181217 -2.422449
v -0.672166 3.181217 -2.422449
v -0.672166 3.181217 -0.000000
v 0.672167 3.181217 -0.000000
vn -0.0000 1.0000 -0.0000
vt 0.884766 0.437500
vt 0.662109 0.437500
vt 0.662109 0.037109
vt 0.884766 0.037109
s 1
usemtl chicken_coop_mat
f 9/9/3 10/10/3 11/11/3 12/12/3
o door_geo.001
v -0.461465 2.505581 -1.723283
v -0.461465 2.505581 0.000000
v 0.461465 2.505581 0.000000
v 0.461465 2.505581 -1.723283
vn -0.0000 1.0000 -0.0000
vt 0.761719 0.962891
vt 0.761719 0.542969
vt 0.986328 0.542969
vt 0.986328 0.962891
s 1
usemtl greenhouse_mat
f 13/13/4 14/14/4 15/15/4 16/16/4
o door_L_geo.001
v -0.006640 0.004808 0.023523
v -0.006640 0.004808 0.024250
v -0.006640 0.019669 0.023523
v -0.006640 0.019669 0.024250
v -0.000224 0.019669 0.023523
v -0.000224 0.019669 0.024250
v -0.000224 0.004808 0.023523
v -0.000224 0.004808 0.024250
vn -1.0000 -0.0000 -0.0000
vn -0.0000 1.0000 -0.0000
vn 1.0000 -0.0000 -0.0000
vn -0.0000 -1.0000 -0.0000
vn -0.0000 -0.0000 1.0000
vt 0.761117 0.037359
vt 0.779049 0.037359
vt 0.779053 0.403904
vt 0.761122 0.403904
vt 0.779054 0.421836
vt 0.937304 0.403902
vt 0.937304 0.421834
vt 0.955236 0.403902
vt 0.937299 0.037357
vt 0.955231 0.037356
vt 0.937299 0.019425
vt 0.779048 0.019427
s 1
usemtl stable_mat
f 17/17/5 18/18/5 20/19/5 19/20/5
f 19/21/6 20/19/6 22/22/6 21/23/6
f 21/24/7 22/22/7 24/25/7 23/26/7
f 23/27/8 24/25/8 18/18/8 17/28/8
f 18/18/9 24/25/9 22/22/9 20/19/9
o stable_geo
v -0.016149 -0.000000 -0.025208
v -0.016149 0.000000 0.025208
v -0.016149 0.029796 -0.025208
v -0.016149 0.029796 0.025208
v 0.016149 0.040736 -0.025208
v 0.016149 0.040736 0.025208
v 0.016149 -0.000000 -0.025208
v 0.016149 0.000000 0.025208
v -0.019937 0.028512 -0.029208
v -0.019937 0.028512 0.029208
v 0.019937 0.042020 0.029208
v 0.019937 0.042020 -0.029208
v -0.019937 0.030632 -0.029208
v -0.019937 0.030632 0.029208
v 0.019937 0.044140 0.029208
v 0.019937 0.044140 -0.029208
v -0.016149 0.023092 -0.025208
v -0.016149 0.023092 0.025208
v 0.016149 0.023092 0.025208
v 0.016149 0.023092 -0.025208
v -0.006640 0.000000 0.025208
v -0.006640 0.023092 0.025208
v 0.006640 0.000000 0.025208
v 0.006640 0.023092 0.025208
v -0.006640 0.000000 0.023476
v -0.006640 0.023092 0.023476
v 0.006640 0.000000 0.023476
v 0.006640 0.023092 0.023476
v -0.014542 0.000000 0.023476
v -0.014542 0.031256 0.023476
v 0.014542 0.000000 0.023476
v 0.014542 0.031256 0.023476
v -0.014542 -0.000000 -0.024074
v -0.014542 0.031256 -0.024074
v 0.014542 -0.000000 -0.024074
v 0.014542 0.031256 -0.024074
v -0.000000 0.025787 0.025208
v -0.000000 0.025787 0.023476
v 0.004195 0.025037 0.025208
v 0.004195 0.025037 0.023476
v -0.004195 0.025037 0.025208
v -0.004195 0.025037 0.023476
v -0.000000 0.035266 0.025208
vn -1.0000 -0.0000 -0.0000
vn -0.3208 0.9471 -0.0000
vn 1.0000 -0.0000 -0.0000
vn -0.0000 -0.0000 1.0000
vn -0.0000 -0.0000 -1.0000
vn 0.9953 -0.0972 -0.0000
vn -0.9953 -0.0972 -0.0000
vn -0.3760 -0.9266 -0.0000
vn -0.0000 1.0000 -0.0000
vn 0.3760 -0.9266 -0.0000
vn -0.0000 -1.0000 -0.0000
vt 0.007812 0.646484
vt 0.369141 0.646484
vt 0.369141 0.695312
vt 0.007812 0.695312
vt 0.031250 0.035156
vt 0.613281 0.035156
vt 0.613281 0.453125
vt 0.031250 0.453125
vt 0.847656 0.994141
vt 0.486328 0.994141
vt 0.486328 0.869141
vt 0.847656 0.869141
vt 0.238281 0.996094
vt 0.152344 0.882812
vt 0.169922 0.869141
vt 0.238281 0.869141
vt 0.244141 0.869141
vt 0.476562 0.869141
vt 0.476562 0.916016
vt 0.244141 0.994141
vt 0.031250 0.013672
vt 0.613281 0.013672
vt 0.632812 0.029297
vt 0.632812 0.447266
vt 0.613281 0.474609
vt 0.031250 0.474609
vt 0.011719 0.447266
vt 0.011719 0.029297
vt 0.007812 0.482422
vt 0.369141 0.482422
vt 0.005859 0.703125
vt 0.074219 0.703125
vt 0.074219 0.869141
vt 0.005859 0.869141
vt 0.486328 0.703125
vt 0.847656 0.703125
vt 0.244141 0.703125
vt 0.476562 0.703125
vt 0.750000 0.402344
vt 0.750000 0.515625
vt 0.644531 0.515625
vt 0.644531 0.402344
vt 0.169922 0.703125
vt 0.238281 0.703125
vt 0.990234 0.689453
vt 0.990234 0.994141
vt 0.966797 0.994141
vt 0.966797 0.689453
vt 0.990234 0.203125
vt 0.990234 0.505859
vt 0.966797 0.505859
vt 0.966797 0.203125
vt 0.990234 0.544922
vt 0.966797 0.544922
vt 0.861328 0.687500
vt 0.750000 0.687500
vt 0.861328 0.515625
vt 0.644531 0.687500
vt 0.533203 0.687500
vt 0.533203 0.515625
vt 0.990234 0.650391
vt 0.966797 0.650391
vt 0.966797 0.597656
vt 0.990234 0.597656
vt 0.091797 0.882812
vt 0.005859 0.916016
vt 0.121094 0.888672
vt 0.121094 0.955078
s 1
usemtl stable_mat
f 41/29/10 42/30/10 28/31/10 27/32/10
f 37/33/11 38/34/11 39/35/11 40/36/11
f 29/37/12 30/38/12 43/39/12 44/40/12
f 30/41/13 63/42/13 48/43/13 43/44/13
f 44/45/14 41/46/14 27/47/14 29/48/14
f 33/49/10 34/50/10 38/34/10 37/33/10
f 34/51/13 35/52/13 39/35/13 38/34/13
f 35/53/12 36/54/12 40/36/12 39/35/12
f 36/55/14 33/56/14 37/33/14 40/36/14
f 25/57/10 26/58/10 42/30/10 41/29/10
f 26/59/13 45/60/13 46/61/13 42/62/13
f 44/40/12 43/39/12 32/63/12 31/64/12
f 31/65/14 25/66/14 41/46/14 44/45/14
f 58/67/13 57/68/13 59/69/13 60/70/13
f 48/43/13 47/71/13 32/72/13 43/44/13
f 46/73/15 45/74/12 49/75/12 50/76/15
f 47/77/10 48/78/16 52/79/16 51/80/10
f 63/81/17 64/82/17 52/79/16 48/78/16
f 54/83/12 53/84/12 57/68/12 58/85/12
f 57/68/18 53/84/18 55/86/18 59/69/18
f 55/86/10 56/87/10 60/88/10 59/69/10
f 65/89/19 66/90/19 62/91/20 61/92/20
f 61/92/20 62/91/20 64/82/17 63/81/17
f 46/73/15 50/76/15 66/90/19 65/89/19
f 46/61/13 65/93/13 28/94/13 42/62/13
f 28/94/13 65/93/13 61/95/13 67/96/13
f 67/96/13 61/95/13 63/42/13 30/41/13
o door_R_geo.001
v 0.000224 0.004808 0.023523
v 0.000224 0.004808 0.024250
v 0.000224 0.019669 0.023523
v 0.000224 0.019669 0.024250
v 0.006640 0.019669 0.023523
v 0.006640 0.019669 0.024250
v 0.006640 0.004808 0.023523
v 0.006640 0.004808 0.024250
vn -1.0000 -0.0000 -0.0000
vn -0.0000 1.0000 -0.0000
vn 1.0000 -0.0000 -0.0000
vn -0.0000 -1.0000 -0.0000
vn -0.0000 -0.0000 1.0000
vt 0.955236 0.037358
vt 0.937304 0.037358
vt 0.937299 0.403904
vt 0.955231 0.403905
vt 0.937299 0.421836
vt 0.779049 0.403903
vt 0.779049 0.421834
vt 0.761117 0.403902
vt 0.779054 0.037356
vt 0.761122 0.037356
vt 0.779054 0.019425
vt 0.937304 0.019427
s 1
usemtl stable_mat
f 68/97/21 69/98/21 71/99/21 70/100/21
f 70/101/22 71/99/22 73/102/22 72/103/22
f 72/104/23 73/102/23 75/105/23 74/106/23
f 74/107/24 75/105/24 69/98/24 68/108/24
f 69/98/25 75/105/25 73/102/25 71/99/25
