# Blender 4.3.2
# www.blender.org
mtllib house.mtl
o door_geo
v -0.017139 0.000000 0.023794
v -0.003311 0.000000 0.023794
v -0.017139 0.024302 0.023794
v -0.003311 0.024302 0.023794
v -0.017139 0.024302 0.023024
v -0.003311 0.024302 0.023024
v -0.017139 0.000000 0.023024
v -0.003311 0.000000 0.023024
vn -0.0000 -0.0000 1.0000
vn -0.0000 1.0000 -0.0000
vn 1.0000 -0.0000 -0.0000
vn -1.0000 -0.0000 -0.0000
vt 0.031814 0.001992
vt 0.581148 0.001992
vt 0.581148 0.967416
vt 0.031814 0.967416
vt 0.581148 0.998008
vt 0.031814 0.998008
vt 0.611740 0.001992
vt 0.611740 0.967416
vt 0.001221 0.001992
vt 0.001221 0.967416
s 1
usemtl door1_mat
f 1/1/1 2/2/1 4/3/1 3/4/1
f 3/4/2 4/3/2 6/5/2 5/6/2
f 2/2/3 8/7/3 6/8/3 4/3/3
f 7/9/4 1/1/4 3/4/4 5/10/4
o house1_geo
v 0.004838 0.010515 0.024012
v 0.019825 0.010515 0.024012
v 0.004838 0.025502 0.024012
v 0.019825 0.025502 0.024012
v 0.004838 0.025502 0.023076
v 0.019825 0.025502 0.023076
v 0.004838 0.010515 0.023076
v 0.019825 0.010515 0.023076
v -0.017139 0.024302 0.023794
v -0.003311 0.024302 0.023794
v -0.003311 0.024302 0.023024
v -0.017139 0.024302 0.023024
v -0.003311 0.000000 0.023794
v -0.003311 0.000000 0.023024
v -0.017139 0.000000 0.023024
v -0.017139 0.000000 0.023794
v -0.018339 0.025502 0.023794
v -0.002111 0.025502 0.023794
v -0.002111 0.025502 0.023024
v -0.018339 0.025502 0.023024
v -0.002111 0.000000 0.023024
v -0.002111 0.000000 0.023794
v -0.018339 0.000000 0.023024
v -0.018339 0.000000 0.023794
v -0.018339 0.025502 0.008382
v -0.002111 0.025502 0.008382
v -0.002111 0.000000 0.008382
v -0.018339 0.000000 0.008382
v -0.026005 0.000000 0.023378
v 0.026005 0.000000 0.023378
v -0.026005 0.000000 -0.023378
v 0.026005 0.000000 -0.023378
v -0.026005 0.030101 0.023378
v 0.000000 0.042932 0.023378
v 0.000000 0.042932 -0.023378
v -0.026005 0.030101 -0.023378
v 0.026005 0.030101 0.023378
v 0.026005 0.030101 -0.023378
v -0.030489 0.027888 0.031923
v 0.000000 0.042932 0.031923
v -0.000000 0.044724 0.031923
v -0.031373 0.029680 0.031923
v -0.030489 0.027888 -0.031923
v 0.000000 0.042932 -0.031923
v -0.031373 0.029680 -0.031923
v 0.000000 0.044724 -0.031923
v 0.030489 0.027888 0.031923
v 0.031373 0.029680 0.031923
v 0.030489 0.027888 -0.031923
v 0.031373 0.029680 -0.031923
v 0.026005 0.030101 0.023378
v 0.000000 0.042932 0.023378
v -0.026005 0.030101 0.023378
v -0.026005 0.030101 -0.023378
v 0.000000 0.042932 -0.023378
v 0.026005 0.030101 -0.023378
v -0.000000 0.000000 0.023378
v 0.000000 -0.000000 -0.023378
v -0.017139 0.000000 0.023378
v -0.017139 0.034477 0.023378
v -0.003311 0.000000 0.023378
v -0.003311 0.041106 0.023378
v -0.026005 0.024302 0.023378
v -0.026005 0.024302 -0.023378
v 0.000000 0.024302 -0.023378
v 0.026005 0.024302 -0.023378
v 0.026005 0.024302 0.023378
v -0.000000 0.024302 0.023378
v -0.003311 0.024302 0.023378
v -0.017139 0.024302 0.023378
v -0.018339 0.025502 0.023024
v -0.002111 0.025502 0.023024
v -0.002111 0.000000 0.023024
v -0.018339 0.000000 0.023024
vn -0.0000 -0.0000 1.0000
vn -0.0000 1.0000 -0.0000
vn -0.0000 -1.0000 -0.0000
vn 1.0000 -0.0000 -0.0000
vn -1.0000 -0.0000 -0.0000
vn -0.0000 -0.0000 -1.0000
vn -0.8968 -0.4425 -0.0000
vn 0.8968 -0.4425 -0.0000
vn 0.4425 -0.8968 -0.0000
vn -0.4324 0.9017 -0.0000
vn -0.4425 -0.8968 -0.0000
vn 0.4324 0.9017 -0.0000
vt 0.834950 0.853823
vt 0.958605 0.853821
vt 0.958603 0.977476
vt 0.834948 0.977478
vt 0.958603 0.985200
vt 0.834948 0.985201
vt 0.834950 0.846099
vt 0.958605 0.846097
vt 0.966329 0.853821
vt 0.966327 0.977476
vt 0.827226 0.853822
vt 0.827224 0.977478
vt 0.100822 0.840367
vt 0.240269 0.840364
vt 0.240266 0.846983
vt 0.100826 0.846983
vt 0.240274 0.621219
vt 0.246891 0.621222
vt 0.246886 0.840361
vt 0.094199 0.621216
vt 0.100818 0.621216
vt 0.094205 0.840368
vt 0.174813 0.739519
vt 0.168196 0.739519
vt 0.168196 0.620693
vt 0.174813 0.620693
vt 0.174814 0.620693
vt 0.174814 0.739519
vt 0.174814 0.620693
vt 0.174814 0.739519
vt 0.168196 0.739519
vt 0.168196 0.620693
vt 0.111130 0.830054
vt 0.231245 0.830054
vt 0.231245 0.621217
vt 0.111130 0.621217
vt 0.419561 0.848785
vt 0.286916 0.848785
vt 0.286916 0.669481
vt 0.419561 0.669481
vt 0.419561 0.848785
vt 0.286916 0.848785
vt 0.419561 0.669481
vt 0.286916 0.669481
vt 0.419561 0.669481
vt 0.419561 0.848785
vt 0.286916 0.848785
vt 0.419561 0.669481
vt 0.286916 0.669481
vt 0.419561 0.848785
vt 0.286916 0.848785
vt 0.286916 0.669481
vt 0.419561 0.669481
vt 0.028111 0.967424
vt 0.265642 0.967425
vt 0.275441 0.980450
vt 0.024041 0.980450
vt 0.265641 0.480250
vt 0.028111 0.480251
vt 0.024041 0.467225
vt 0.275440 0.467225
vt 0.014438 0.967423
vt 0.014439 0.480252
vt 0.500731 0.967425
vt 0.503987 0.980450
vt 0.252587 0.980450
vt 0.500729 0.480250
vt 0.514402 0.480251
vt 0.514403 0.967424
vt 0.252587 0.467225
vt 0.503985 0.467225
vt 0.066395 0.902220
vt 0.264828 0.902220
vt 0.264828 0.545455
vt 0.066395 0.545455
vt 0.965638 0.405458
vt 0.965638 0.607246
vt 0.554990 0.607246
vt 0.554990 0.405458
vt 0.463261 0.902220
vt 0.463260 0.545455
vt 0.965638 0.809035
vt 0.554990 0.809035
vt 0.253688 0.021197
vt 0.473339 0.021197
vt 0.473339 0.226458
vt 0.253688 0.226458
vt 0.108922 0.312400
vt 0.034036 0.275437
vt 0.034036 0.226458
vt 0.108922 0.226458
vt 0.108922 0.021197
vt 0.034036 0.021197
vt 0.744741 0.021197
vt 0.964392 0.021197
vt 0.964392 0.226458
vt 0.744741 0.226458
vt 0.525425 0.021197
vt 0.964057 0.021197
vt 0.964057 0.226457
vt 0.525425 0.226457
vt 0.964057 0.226458
vt 0.525425 0.226458
vt 0.964057 0.275436
vt 0.525425 0.275436
vt 0.525090 0.021197
vt 0.525090 0.226458
vt 0.225718 0.368392
vt 0.225718 0.226458
vt 0.225718 0.021197
vt 0.253688 0.383816
vt 0.744741 0.383815
vt 0.964392 0.275437
vt 0.525090 0.275437
vt 0.525425 0.275436
vt 0.964057 0.275436
vt 0.473339 0.275437
s 1
usemtl house1_mat
f 9/11/5 10/12/5 12/13/5 11/14/5
f 11/14/6 12/13/6 14/15/6 13/16/6
f 15/17/7 16/18/7 10/12/7 9/11/7
f 10/12/8 16/19/8 14/20/8 12/13/8
f 15/21/9 9/11/9 11/14/9 13/22/9
f 25/23/6 26/24/6 27/25/6 28/26/6
f 30/27/8 29/28/8 27/29/8 26/24/8
f 31/30/9 32/31/9 25/23/9 28/32/9
f 17/33/7 20/34/7 19/35/7 18/36/7
f 21/37/9 18/38/9 19/34/9 22/35/9
f 23/39/8 20/40/8 17/41/8 24/42/8
f 17/43/5 18/44/5 26/24/5 25/23/5
f 18/44/5 21/45/5 30/27/5 26/24/5
f 24/46/5 17/43/5 25/23/5 32/31/5
f 79/47/7 33/48/7 34/49/7 80/50/7
f 80/51/9 34/52/9 35/49/9 81/53/9
f 82/54/8 36/55/8 33/56/8 79/57/8
f 35/58/6 36/47/6 82/48/6 81/59/6
f 34/60/5 33/61/5 36/62/5 35/63/5
f 47/64/5 48/65/5 49/66/5 50/67/5
f 52/68/10 51/69/10 53/70/10 54/71/10
f 51/69/11 47/64/11 50/72/11 53/73/11
f 48/65/5 55/74/5 56/75/5 49/76/5
f 55/74/12 57/77/12 58/78/12 56/79/12
f 57/77/10 52/68/10 54/80/10 58/81/10
f 41/82/13 42/83/13 48/65/13 47/64/13
f 43/84/13 44/85/13 51/69/13 52/68/13
f 50/86/14 49/87/14 54/88/14 53/89/14
f 44/85/13 41/82/13 47/64/13 51/69/13
f 42/83/15 45/90/15 55/74/15 48/65/15
f 45/90/15 46/91/15 57/77/15 55/74/15
f 56/92/16 58/93/16 54/88/16 49/87/16
f 46/91/15 43/84/15 52/68/15 57/77/15
f 65/94/5 38/95/5 75/96/5 76/97/5
f 68/98/5 61/99/5 71/100/5 78/101/5
f 67/102/5 78/101/5 71/100/5 37/103/5
f 66/104/10 39/105/10 72/106/10 73/107/10
f 38/108/8 40/109/8 74/110/8 75/111/8
f 39/108/9 37/109/9 71/112/9 72/113/9
f 61/114/9 62/115/9 72/113/9 71/112/9
f 40/116/10 66/104/10 73/107/10 74/117/10
f 70/118/5 68/98/5 78/101/5 77/119/5
f 65/94/5 76/97/5 77/119/5 69/120/5
f 60/121/5 70/118/5 77/119/5 76/97/5
f 63/122/10 73/107/10 72/106/10 62/123/10
f 64/124/10 74/117/10 73/107/10 63/122/10
f 59/125/8 75/111/8 74/110/8 64/126/8
f 60/121/5 76/97/5 75/96/5 59/127/5
