# Blender 4.3.2
# www.blender.org
mtllib dogs_house.mtl
o door_L_geo
v -2.200328 5.790417 -4.969239
v -2.200327 5.790417 0.000000
v -0.001809 5.790417 0.000000
v -0.000067 5.790417 -4.969239
vn -0.0000 1.0000 -0.0000
vt 0.931641 0.976562
vt 0.931641 0.542969
vt 0.734375 0.542969
vt 0.734375 0.976562
s 1
usemtl barn_mat
f 1/1/1 2/2/1 3/3/1 4/4/1
o door_R_geo
v 2.196709 5.790417 -0.000000
v 2.200193 5.790417 -4.969239
v -0.001809 5.790417 0.000000
v -0.000067 5.790417 -4.969239
vn -0.0000 1.0000 -0.0000
vt 0.734375 0.976562
vt 0.734375 0.542969
vt 0.931641 0.542969
vt 0.931641 0.976562
s 1
usemtl barn_mat
f 8/5/2 7/6/2 5/7/2 6/8/2
o door_geo
v 0.672167 3.181217 -2.422449
v -0.672166 3.181217 -2.422449
v -0.672166 3.181217 -0.000000
v 0.672167 3.181217 -0.000000
vn -0.0000 1.0000 -0.0000
vt 0.884766 0.437500
vt 0.662109 0.437500
vt 0.662109 0.037109
vt 0.884766 0.037109
s 1
usemtl chicken_coop_mat
f 9/9/3 10/10/3 11/11/3 12/12/3
o door_geo.001
v -0.461465 2.505581 -1.723283
v -0.461465 2.505581 0.000000
v 0.461465 2.505581 0.000000
v 0.461465 2.505581 -1.723283
vn -0.0000 1.0000 -0.0000
vt 0.761719 0.962891
vt 0.761719 0.542969
vt 0.986328 0.542969
vt 0.986328 0.962891
s 1
usemtl greenhouse_mat
f 13/13/4 14/14/4 15/15/4 16/16/4
o door_L_geo.001
v -0.664002 2.352312 -0.480767
v -0.664002 2.425014 -0.480767
v -0.664002 2.352312 -1.966905
v -0.664002 2.425014 -1.966905
v -0.022388 2.352312 -1.966905
v -0.022388 2.425014 -1.966905
v -0.022388 2.352312 -0.480767
v -0.022388 2.425014 -0.480767
vn -1.0000 -0.0000 -0.0000
vn -0.0000 -0.0000 -1.0000
vn 1.0000 -0.0000 -0.0000
vn -0.0000 -0.0000 1.0000
vn -0.0000 1.0000 -0.0000
vt 0.761117 0.037359
vt 0.779049 0.037359
vt 0.779053 0.403904
vt 0.761122 0.403904
vt 0.779054 0.421836
vt 0.937304 0.403902
vt 0.937304 0.421834
vt 0.955236 0.403902
vt 0.937299 0.037357
vt 0.955231 0.037356
vt 0.937299 0.019425
vt 0.779048 0.019427
s 1
usemtl stable_mat
f 17/17/5 18/18/5 20/19/5 19/20/5
f 19/21/6 20/19/6 22/22/6 21/23/6
f 21/24/7 22/22/7 24/25/7 23/26/7
f 23/27/8 24/25/8 18/18/8 17/28/8
f 18/18/9 24/25/9 22/22/9 20/19/9
o door_R_geo.001
v 0.022387 2.352312 -0.480767
v 0.022388 2.425014 -0.480767
v 0.022387 2.352312 -1.966905
v 0.022388 2.425014 -1.966905
v 0.664002 2.352312 -1.966905
v 0.664002 2.425014 -1.966905
v 0.664002 2.352312 -0.480767
v 0.664002 2.425014 -0.480767
vn -1.0000 -0.0000 -0.0000
vn -0.0000 -0.0000 -1.0000
vn 1.0000 -0.0000 -0.0000
vn -0.0000 -0.0000 1.0000
vn -0.0000 1.0000 -0.0000
vt 0.955236 0.037358
vt 0.937304 0.037358
vt 0.937299 0.403904
vt 0.955231 0.403905
vt 0.937299 0.421836
vt 0.779049 0.403903
vt 0.779049 0.421834
vt 0.761117 0.403902
vt 0.779054 0.037356
vt 0.761122 0.037356
vt 0.779054 0.019425
vt 0.937304 0.019427
s 1
usemtl stable_mat
f 25/29/10 26/30/10 28/31/10 27/32/10
f 27/33/11 28/31/11 30/34/11 29/35/11
f 29/36/12 30/34/12 32/37/12 31/38/12
f 31/39/13 32/37/13 26/30/13 25/40/13
f 26/30/14 32/37/14 30/34/14 28/31/14
o dogs_house_geo
v -0.011160 0.000000 0.012115
v -0.005008 0.000000 0.012115
v -0.005008 0.012810 0.012115
v -0.003541 0.016351 0.012115
v 0.000000 0.017818 0.012115
v 0.003541 0.016351 0.012115
v 0.011160 0.018851 0.012115
v 0.000000 0.028441 0.012115
v -0.011160 0.018851 0.012115
v 0.005008 0.012810 0.012115
v 0.005008 0.000000 0.012115
v 0.011160 0.000000 0.012115
v -0.011160 -0.000000 -0.011766
v -0.011160 0.018851 -0.011766
v 0.011160 -0.000000 -0.011766
v 0.011160 0.018851 -0.011766
v 0.000000 0.028441 -0.011766
v -0.009886 0.001274 0.010865
v -0.009886 0.018266 0.010491
v 0.009886 0.018266 0.010491
v 0.009886 0.001274 0.010865
v -0.009886 0.001274 -0.010491
v 0.009886 0.001274 -0.010491
v -0.009886 0.018266 -0.010491
v 0.009886 0.018266 -0.010491
v 0.000000 0.017818 0.010865
v 0.003541 0.016351 0.010865
v 0.005008 0.012810 0.010865
v -0.003541 0.016351 0.010865
v -0.005008 0.012810 0.010865
v -0.005008 0.000000 0.010865
v 0.005008 0.000000 0.010865
v 0.009886 0.000000 0.010865
v -0.009886 0.000000 0.010865
v 0.000000 0.028441 -0.013366
v 0.000000 0.028441 0.013715
v 0.012374 0.017808 0.013715
v 0.012374 0.017808 -0.013366
v -0.012374 0.017808 0.013715
v -0.012374 0.017808 -0.013366
v 0.000004 0.030376 -0.013366
v 0.000004 0.030376 0.013715
v 0.013033 0.018535 0.013715
v 0.013033 0.018535 -0.013366
v -0.012978 0.018578 0.013715
v -0.012978 0.018578 -0.013366
vn -0.0000 -0.0000 1.0000
vn -1.0000 -0.0000 -0.0000
vn 1.0000 -0.0000 -0.0000
vn 0.6726 0.7400 -0.0000
vn -0.6726 0.7400 -0.0000
vn -0.0000 -0.0000 -1.0000
vn -0.7071 -0.7071 -0.0000
vn -0.0000 -1.0000 -0.0000
vn -0.9960 -0.0894 -0.0000
vn 0.7071 -0.7071 -0.0000
vn 0.9960 -0.0894 -0.0000
vn -0.0000 1.0000 -0.0000
vt 0.009766 0.148438
vt 0.097656 0.148438
vt 0.097656 0.335938
vt 0.009766 0.423828
vt 0.333984 0.574219
vt 0.681641 0.570312
vt 0.681641 0.847656
vt 0.333984 0.847656
vt 0.333984 0.148438
vt 0.681641 0.148438
vt 0.681641 0.423828
vt 0.333984 0.423828
vt 0.730469 0.964844
vt 0.730469 0.642578
vt 0.972656 0.642578
vt 0.972656 0.964844
vt 0.728516 0.251953
vt 0.972656 0.251953
vt 0.972656 0.574219
vt 0.728516 0.574219
vt 0.171875 0.988281
vt 0.009766 0.847656
vt 0.009766 0.574219
vt 0.326172 0.052734
vt 0.398438 0.052734
vt 0.398438 0.076172
vt 0.326172 0.076172
vt 0.255859 0.052734
vt 0.255859 0.076172
vt 0.468750 0.052734
vt 0.468750 0.076172
vt 0.021484 0.052734
vt 0.021484 0.076172
vt 0.539062 0.052734
vt 0.773438 0.052734
vt 0.773438 0.076172
vt 0.539062 0.076172
vt 0.798828 0.125000
vt 0.798828 0.025391
vt 0.892578 0.025391
vt 0.892578 0.125000
vt 0.798828 0.205078
vt 0.699219 0.205078
vt 0.699219 0.125000
vt 0.992188 0.125000
vt 0.992188 0.205078
vt 0.892578 0.205078
vt 0.119141 0.386719
vt 0.171875 0.564453
vt 0.171875 0.408203
vt 0.222656 0.386719
vt 0.244141 0.335938
vt 0.244141 0.148438
vt 0.798828 0.017578
vt 0.892578 0.017578
vt 0.748047 0.617188
vt 0.972656 0.617188
vt 0.972656 0.990234
vt 0.748047 0.990234
vt 0.728516 0.226562
vt 0.955078 0.226562
vt 0.957031 0.599609
vt 0.728516 0.599609
s 1
usemtl dogs_house_mat
f 33/41/15 34/42/15 35/43/15 41/44/15
f 45/45/16 33/46/16 41/47/16 46/48/16
f 44/49/17 47/50/17 48/51/17 39/52/17
f 73/53/18 74/54/18 75/55/18 76/56/18
f 77/57/19 74/58/19 73/59/19 78/60/19
f 46/48/20 49/61/20 48/62/20 47/63/20 45/45/20
f 38/64/21 37/65/22 58/66/22 59/67/21
f 42/68/23 38/64/21 59/67/21 60/69/23
f 37/65/22 36/70/24 61/71/24 58/66/22
f 43/72/16 42/68/23 60/69/23 64/73/16
f 35/74/25 34/75/17 63/76/17 62/77/25
f 36/70/24 35/74/25 62/77/25 61/71/24
f 54/78/26 50/79/26 53/80/26 55/81/26
f 54/78/17 56/82/17 51/83/17 50/84/17
f 53/85/16 52/86/16 57/87/16 55/81/16
f 56/82/15 54/78/15 55/81/15 57/87/15
f 41/44/15 35/43/15 36/88/15
f 40/89/15 37/90/15 38/91/15 39/52/15
f 41/44/15 36/88/15 37/90/15 40/89/15
f 38/91/15 42/92/15 39/52/15
f 42/92/15 43/93/15 44/49/15 39/52/15
f 53/80/15 50/79/15 66/94/15 65/95/15
f 68/96/15 69/97/15 75/55/15 74/54/15
f 70/98/20 67/99/20 73/53/20 76/56/20
f 71/100/15 68/101/15 74/58/15 77/57/15
f 67/102/20 72/103/20 78/60/20 73/59/20
